<?xml version="1.0" standalone="no"?>
<!DOCTYPE svg PUBLIC "-//W3C//DTD SVG 20010904//EN"
 "http://www.w3.org/TR/2001/REC-SVG-20010904/DTD/svg10.dtd">
<svg version="1.0" xmlns="http://www.w3.org/2000/svg" width="512.000000pt" height="512.000000pt" viewBox="0 0 512.000000 512.000000" preserveAspectRatio="xMidYMid meet"><metadata>Created by potrace 1.16, written by Peter Selinger 2001-2019</metadata><g transform="translate(0.000000,512.000000) scale(0.100000,-0.100000)"fill="#000000" stroke="none"><path d="M48 4894 c-15 -8 -32 -23 -38 -34 -7 -12 -10 -761 -10 -2302 0 -21481 -2284 18 -2304 42 -52 118 -60 161 -16 19 19 311 690 995 2286 1064 2483992 2299 926 2359 l-30 27 -998 0 c-860 -1 -1001 -3 -1024 -16z"/><path d="M3020 4883 c-66 -60 -138 124 926 -2359 684 -1596 976 -2267 995-2287 43 -43 119 -35 161 17 17 20 18 156 18 2304 0 1547 -3 2290 -10 2303-28 51 6 49 -1064 49 l-996 0 -30 -27z"/><path d="M2490 3283 c-24 -22 -116 -233 -460 -1050 -286 -682 -430 -1034 -430-1058 0 -19 5 -45 11 -58 23 -52 24 -52 464 -57 l409 -5 148 -395 c122 -325153 -400 178 -422 l30 -28 461 0 c479 0 486 1 521 44 39 48 33 65 -308 902-179 439 -363 891 -409 1004 -46 113 -104 257 -130 320 -98 241 -200 490 -256630 -68 167 -94 200 -159 200 -29 0 -48 -7 -70 -27z"/></g></svg>